<?xml version="1.0" encoding="UTF-8"?>
<svg id="_Слой_1" data-name="Слой 1" xmlns="http://www.w3.org/2000/svg" viewBox="0 0 633.92 205.74">
  <defs>
    <style>
      .cls-1 {
        fill: #fff;
      }

      .cls-2 {
        fill: #66bb7a;
      }
    </style>
  </defs>
  <path class="cls-1" d="M80.93,69.69c-12.47,6.05-20.53,18.93-20.53,32.81,0,4.23-3.45,7.65-7.65,7.65s-7.65-3.42-7.65-7.65c0-19.72,11.45-38.01,29.18-46.58,3.8-1.83,8.37-.26,10.22,3.57,1.84,3.8,.24,8.37-3.57,10.2Z"/>
  <g>
    <path class="cls-2" d="M97.56,37.12c-36.3,0-65.73,29.44-65.73,65.74s29.43,65.76,65.73,65.76,65.76-29.44,65.76-65.76-29.44-65.74-65.76-65.74Zm-16.63,32.57c-12.47,6.05-20.53,18.93-20.53,32.81,0,4.23-3.45,7.65-7.65,7.65s-7.65-3.42-7.65-7.65c0-19.72,11.45-38.01,29.18-46.58,3.8-1.83,8.37-.26,10.22,3.57,1.84,3.8,.24,8.37-3.57,10.2Z"/>
    <g>
      <path d="M231.73,65.19l16.78,29.19h-21.57l-10.86-20.51h-5.35v20.51h-19.13V37.62h19.13v21.16h5.84l12.08-21.16h19.95l-16.86,27.57Z"/>
      <path d="M308.43,37.62v56.76h-19.14v-20.92h-17.68v20.92h-19.14V37.62h19.14v20.11h17.68v-20.11h19.14Z"/>
      <path d="M330.89,91.86c-4.86-2.54-8.68-6.07-11.43-10.58-2.76-4.51-4.14-9.61-4.14-15.28s1.38-10.77,4.14-15.28c2.76-4.51,6.57-8.04,11.43-10.58,4.86-2.54,10.35-3.81,16.46-3.81s11.59,1.27,16.46,3.81c4.87,2.54,8.68,6.07,11.43,10.58,2.76,4.51,4.14,9.61,4.14,15.28s-1.38,10.77-4.14,15.28c-2.76,4.51-6.57,8.04-11.43,10.58-4.86,2.54-10.35,3.81-16.46,3.81s-11.59-1.27-16.46-3.81Zm22.91-13.42c1.92-1.16,3.45-2.81,4.58-4.95,1.13-2.13,1.7-4.63,1.7-7.5s-.57-5.36-1.7-7.5c-1.14-2.14-2.66-3.78-4.58-4.95-1.92-1.16-4.07-1.74-6.45-1.74s-4.53,.58-6.45,1.74c-1.92,1.16-3.45,2.81-4.58,4.95-1.14,2.14-1.7,4.64-1.7,7.5s.57,5.37,1.7,7.5c1.13,2.14,2.66,3.78,4.58,4.95,1.92,1.16,4.07,1.74,6.45,1.74s4.53-.58,6.45-1.74Z"/>
      <path d="M441.16,37.62v56.76h-18.81V52.46h-17.27v41.92h-18.81V37.62h54.89Z"/>
      <path d="M490.86,65.19l16.78,29.19h-21.57l-10.86-20.51h-5.35v20.51h-19.13V37.62h19.13v21.16h5.84l12.08-21.16h19.95l-16.86,27.57Z"/>
      <path d="M550.05,84.49h-21.57l-3.81,9.89h-19.46l24.81-56.76h18.81l24.81,56.76h-19.78l-3.81-9.89Zm-5.27-13.78l-5.51-14.27-5.51,14.27h11.03Z"/>
      <path d="M238.44,143.96c1.7,2.38,2.55,5.08,2.55,8.11,0,3.57-1.26,6.66-3.77,9.28-2.51,2.62-5.89,4.62-10.14,6-4.24,1.38-8.96,2.07-14.15,2.07-8.27,0-16.14-1.65-23.59-4.95l5.6-13.22c2.65,1.08,5.4,1.91,8.27,2.47,2.86,.57,5.57,.85,8.11,.85,3.08,0,5.58-.43,7.5-1.3,1.92-.86,2.88-2.13,2.88-3.81,0-2.27-1.87-3.41-5.59-3.41h-15.32v-13.78h13.7c1.62,0,2.85-.3,3.69-.89,.84-.59,1.26-1.43,1.26-2.51,0-1.4-.74-2.49-2.23-3.24-1.49-.76-3.45-1.14-5.88-1.14-2.27,0-4.73,.32-7.38,.97-2.65,.65-5.16,1.57-7.54,2.76l-5.59-14.19c6.27-2.86,13.08-4.3,20.43-4.3,4.92,0,9.47,.68,13.66,2.03,4.19,1.35,7.54,3.31,10.05,5.88,2.51,2.57,3.77,5.58,3.77,9.04,0,2.54-.65,4.84-1.95,6.89-1.3,2.05-3.11,3.7-5.43,4.95,3.03,1.24,5.39,3.05,7.09,5.43Z"/>
      <path d="M287.85,158.15h-21.57l-3.81,9.89h-19.46l24.81-56.76h18.81l24.81,56.76h-19.78l-3.81-9.89Zm-5.27-13.78l-5.51-14.27-5.51,14.27h11.03Z"/>
      <path d="M356.37,138.85l16.78,29.19h-21.57l-10.86-20.51h-5.35v20.51h-19.14v-56.76h19.14v21.16h5.84l12.08-21.16h19.95l-16.87,27.57Z"/>
      <path d="M415.55,158.15h-21.57l-3.81,9.89h-19.46l24.81-56.76h18.81l24.81,56.76h-19.78l-3.81-9.89Zm-5.27-13.78l-5.51-14.27-5.51,14.27h11.03Z"/>
      <path d="M489.54,143.96c1.7,2.38,2.55,5.08,2.55,8.11,0,3.57-1.26,6.66-3.77,9.28-2.51,2.62-5.89,4.62-10.14,6-4.24,1.38-8.96,2.07-14.15,2.07-8.27,0-16.14-1.65-23.59-4.95l5.6-13.22c2.65,1.08,5.4,1.91,8.27,2.47,2.86,.57,5.57,.85,8.11,.85,3.08,0,5.58-.43,7.5-1.3,1.92-.86,2.88-2.13,2.88-3.81,0-2.27-1.87-3.41-5.59-3.41h-15.32v-13.78h13.7c1.62,0,2.85-.3,3.69-.89,.84-.59,1.26-1.43,1.26-2.51,0-1.4-.74-2.49-2.23-3.24-1.49-.76-3.45-1.14-5.88-1.14-2.27,0-4.73,.32-7.38,.97-2.65,.65-5.16,1.57-7.54,2.76l-5.59-14.19c6.27-2.86,13.08-4.3,20.43-4.3,4.92,0,9.47,.68,13.66,2.03,4.19,1.35,7.54,3.31,10.05,5.88,2.51,2.57,3.77,5.58,3.77,9.04,0,2.54-.65,4.84-1.95,6.89-1.3,2.05-3.11,3.7-5.43,4.95,3.03,1.24,5.39,3.05,7.09,5.43Z"/>
      <path d="M545.85,133.46c3.84,3.16,5.76,7.82,5.76,13.99,0,6.65-2.19,11.74-6.57,15.28-4.38,3.54-10.38,5.31-18,5.31h-28.14v-56.76h18.81v17.43h11.76c7.08,0,12.54,1.58,16.38,4.74Zm-15.32,19.38c1.24-1.22,1.87-2.9,1.87-5.07,0-3.78-2.22-5.68-6.65-5.68h-8.03v12.57h8.03c1.95,0,3.54-.61,4.78-1.82Zm26.27-41.55h18.81v56.76h-18.81v-56.76Z"/>
    </g>
    <path d="M572.95,205.74H60.97C27.35,205.74,0,178.56,0,145.14V60.61C0,27.19,27.35,0,60.97,0h511.97c33.62,0,60.97,27.19,60.97,60.61v84.53c0,33.42-27.35,60.61-60.97,60.61ZM60.97,5.63C30.48,5.63,5.66,30.29,5.66,60.61v84.53c0,30.31,24.81,54.98,55.31,54.98h511.97c30.5,0,55.31-24.66,55.31-54.98V60.61c0-30.31-24.81-54.98-55.31-54.98H60.97Z"/>
  </g>
</svg>